<?xml version="1.0" standalone="no"?><!DOCTYPE svg PUBLIC "-//W3C//DTD SVG 1.1//EN" "http://www.w3.org/Graphics/SVG/1.1/DTD/svg11.dtd"><svg t="1666148641846" class="icon" viewBox="0 0 1024 1024" version="1.1" xmlns="http://www.w3.org/2000/svg" p-id="3145" xmlns:xlink="http://www.w3.org/1999/xlink" width="200" height="200"><path d="M740.910545 451.397818c-4.340364-12.113455-17.652364-18.420364-29.754182-14.08-12.101818 4.328727-18.408727 17.640727-14.091636 29.742545l111.732364 312.692364L128 923.764364 128 96.395636l463.301818 90.938182 18.629818 41.949091c5.213091 11.741091 18.978909 17.012364 30.72 11.834182 11.752727-5.213091 17.047273-18.967273 11.834182-30.72l-23.528727-53.015273c-3.083636-6.935273-9.344-11.927273-16.791273-13.393455L109.207273 45.277091C102.4 43.927273 95.313455 45.730909 89.937455 50.141091 84.573091 54.562909 81.454545 61.149091 81.454545 68.119273l0 884.363636c0 7.028364 3.165091 13.661091 8.622545 18.082909C94.254545 973.940364 99.432727 975.755636 104.727273 975.755636c1.605818 0 3.223273-0.174545 4.817455-0.500364l734.941091-155.473455c6.562909-1.396364 12.218182-5.562182 15.499636-11.415273 3.269818-5.864727 3.851636-12.846545 1.605818-19.176727L740.910545 451.397818z" p-id="3146" fill="#1296db"></path><path d="M963.665455 176.418909c-3.072-6.644364-9.088-11.461818-16.244364-12.997818l-162.909091-34.909091c-12.602182-2.664727-24.948364 5.317818-27.636364 17.885091s5.317818 24.936727 17.885091 27.636364l90.426182 19.386182c-251.450182 69.399273-360.331636 229.271273-403.304727 320.290909-5.492364 11.636364-0.512 25.495273 11.112727 30.987636C476.194909 546.187636 479.569455 546.909091 482.909091 546.909091c8.727273 0 17.093818-4.922182 21.061818-13.335273 40.192-85.131636 143.546182-235.776 385.803636-298.461091l-49.175273 91.322182c-6.085818 11.322182-1.861818 25.437091 9.460364 31.522909 3.514182 1.896727 7.284364 2.792727 11.008 2.792727 8.285091 0 16.302545-4.433455 20.514909-12.241455l81.454545-151.272727C966.516364 190.766545 966.737455 183.063273 963.665455 176.418909z" p-id="3147" fill="#1296db"></path></svg>